<?xml version="1.0" encoding="UTF-8" standalone="no"?>
<!DOCTYPE svg PUBLIC "-//W3C//DTD SVG 1.1//EN" "http://www.w3.org/Graphics/SVG/1.1/DTD/svg11.dtd">
<svg width="100%" height="100%" viewBox="0 0 253 180" version="1.1" xmlns="http://www.w3.org/2000/svg" xmlns:xlink="http://www.w3.org/1999/xlink" xml:space="preserve" xmlns:serif="http://www.serif.com/" style="fill-rule:evenodd;clip-rule:evenodd;stroke-linejoin:round;stroke-miterlimit:2;">
    <g id="Home" transform="matrix(1,0,0,1,-52,-40)">
        <rect x="52" y="40" width="253" height="180" style="fill:none;"/>
        <g transform="matrix(1,0,0,1,65,49)">
            <path d="M125,40L230,40L230,160L0,160L0,0L85,0L125,40Z"/>
        </g>
        <g transform="matrix(1,0,0,1,52,40)">
            <path d="M138.5,77.9L138.5,73L146.5,73L146.5,86.967L158,100L146,100L146,131L110,131L110,100L98,100L128,66L138.5,77.9ZM141,103.5L132,103.5L132,112.5L141,112.5L141,103.5Z" style="fill:white;"/>
        </g>
    </g>
</svg>
