<?xml version="1.0" encoding="UTF-8" standalone="no"?>
<!DOCTYPE svg PUBLIC "-//W3C//DTD SVG 1.1//EN" "http://www.w3.org/Graphics/SVG/1.1/DTD/svg11.dtd">
<svg width="100%" height="100%" viewBox="0 0 253 180" version="1.1" xmlns="http://www.w3.org/2000/svg" xmlns:xlink="http://www.w3.org/1999/xlink" xml:space="preserve" xmlns:serif="http://www.serif.com/" style="fill-rule:evenodd;clip-rule:evenodd;stroke-linejoin:round;stroke-miterlimit:2;">
    <g transform="matrix(1,0,0,1,-282,0)">
        <g id="Up" transform="matrix(1,0,0,1,230,-40)">
            <rect x="52" y="40" width="253" height="180" style="fill:none;"/>
            <g transform="matrix(1,0,0,1,65,49)">
                <path d="M125,40L230,40L230,160L0,160L0,0L85,0L125,40Z"/>
            </g>
            <path d="M162.353,140L150,140L180,106L210,140L197.647,140L180,120L162.353,140Z" style="fill:white;"/>
            <g transform="matrix(1,0,0,1,0,30)">
                <path d="M162.353,140L150,140L180,106L210,140L197.647,140L180,120L162.353,140Z" style="fill:white;"/>
            </g>
        </g>
    </g>
</svg>
